<svg xmlns="http://www.w3.org/2000/svg" width="256" height="256"><path fill="#1976D2" fill-opacity=".016" fill-rule="evenodd" d="M0 128.004v128.004l128.25-.254 128.25-.254.254-127.75L257.008 0H0zm.485.496c0 70.4.119 99.053.265 63.672.146-35.38.146-92.98 0-128C.604 29.153.485 58.1.485 128.5"/><path fill="#1976D2" fill-opacity=".219" fill-rule="evenodd" d="M24.5 1.383c-2.2.697-5.077 1.847-6.394 2.555C13.599 6.36 6.822 13.418 4.161 18.46L1.5 23.5v209l2.65 5.02c3.668 6.947 11.214 13.724 18.188 16.334C28.064 255.996 28.262 256 127.5 256c99.374 0 99.428-.001 105.187-2.156 7.666-2.868 15.246-10.076 18.707-17.787l2.643-5.888-.269-103.335L253.5 23.5l-2.661-5.04c-3.236-6.132-10.36-12.886-16.663-15.799L229.5.5 129 .307C50.167.156 27.638.388 24.5 1.383"/><path fill="#1976D2" fill-opacity=".5" fill-rule="evenodd" d="M26.41 1.122C20.149 2.549 11.974 7.963 7.875 13.397c-7.3 9.678-6.943 3.418-6.644 116.616L1.5 231.5l2.307 4.636c3.728 7.493 8.694 12.493 15.964 16.072l6.687 3.292h202.084l6.687-3.292c7.27-3.579 12.236-8.579 15.964-16.072l2.307-4.636v-207l-2.307-4.636c-3.727-7.493-8.694-12.493-15.963-16.072L228.544.5 129.522.345C71.306.254 28.815.575 26.41 1.122m2.916 7.908c-5.56 1.119-9.176 3.109-12.964 7.135-5.378 5.716-6.651 9.376-7.159 20.585L8.738 47h237.489l-.418-10.25c-.466-11.449-2.086-15.808-7.971-21.449-7.558-7.245-.404-6.783-107.838-6.956-53.075-.085-98.378.223-100.674.685m-2.403 11.893C20.824 27.022 24.759 37 33.264 37c9.963 0 13.49-12.973 4.756-17.49-4.451-2.301-7.81-1.874-11.097 1.413m27.637-.792c-3.713 2.921-4.881 6.365-3.539 10.431 2.989 9.058 16.206 8.349 18.552-.995C70.967 24.01 65.83 18 59.685 18c-1.329 0-3.635.959-5.125 2.131m27.328-.631C73.661 23.971 77.222 37 86.67 37c9.317 0 13.233-10.538 6.135-16.511-3.303-2.779-7.006-3.115-10.917-.989M9.224 142.25 9.5 229.5l2.178 4.068c2.799 5.229 8.999 10.816 13.941 12.561 5.751 2.031 198.011 2.031 203.762 0 4.942-1.745 11.142-7.332 13.941-12.561l2.178-4.068.271-87.25.272-87.25H8.947zm11.347-53.679C19.254 89.889 19 93.192 19 109.015c0 18.368.059 18.913 2.223 20.428 3.3 2.312 37.892 2.299 40.206-.014 1.319-1.32 1.571-4.653 1.571-20.8 0-13.623-.35-19.579-1.2-20.429-.85-.85-6.806-1.2-20.429-1.2-16.147 0-19.48.252-20.8 1.571m55.986.652c-1.268 1.809-1.557 5.528-1.557 20C75 132.695 73.283 131 97.066 131c10.541 0 18.871-.431 20-1.035 1.812-.97 1.934-2.283 1.934-20.8 0-14.039-.348-20.113-1.2-20.965-.85-.85-6.81-1.2-20.443-1.2-18.752 0-19.283.057-20.8 2.223M138.2 88.2c-.899.899-1.2 13.037-1.2 48.465 0 45.706.064 47.299 1.934 48.3 1.252.67 17.934 1.035 47.278 1.035 39.42 0 45.633-.203 47.565-1.557l2.223-1.556v-46.009c0-29.803-.365-46.691-1.035-47.944-1.001-1.87-2.594-1.934-48.3-1.934-35.428 0-47.566.301-48.465 1.2M28 108.5V122h27V95H28zm56 0V122h27V95H84zm61 27.5v41h82V95h-82zm-123.8 8.2c-.85.85-1.2 6.814-1.2 20.465 0 18.023.125 19.331 1.934 20.3 1.253.67 18.023 1.035 47.566 1.035 29.543 0 46.313-.365 47.566-1.035 1.809-.969 1.934-2.277 1.934-20.3 0-13.651-.35-19.615-1.2-20.465-1.728-1.728-94.872-1.728-96.6 0M28 164v13h83v-26H28zm-6.795 45.195c-1.601 1.601-1.528 4.292.153 5.687.993.824 29.675 1.059 106.641.873 99.022-.24 105.349-.359 106.387-2.005.805-1.276.805-2.224 0-3.5-1.038-1.646-7.372-1.765-106.54-2.005-81.178-.196-105.714.023-106.641.95"/><path fill="#1976D2" fill-opacity=".541" fill-rule="evenodd" d="M22 2.742c-2.913 1.026-6.648 3.732-10.589 7.671C.708 21.113 1.5 11.717 1.5 128c0 116.286-.792 106.893 9.911 117.579C21.603 255.753 12.32 255 127.5 255c115.18 0 105.897.753 116.089-9.421 10.703-10.686 9.911-1.293 9.911-117.579 0-116.286.792-106.893-9.911-117.579C233.388.237 242.754.988 127.072 1.079 37.987 1.149 25.986 1.339 22 2.742m3.627 6.726c-5.89 2.1-10.832 6.555-13.877 12.511C9.302 26.768 9 28.437 9 37.179V47h237v-9.821c0-8.732-.305-10.421-2.75-15.243-3.065-6.042-9.142-11.256-15.025-12.89-2.453-.682-37.009-1.022-101.225-.997-80.301.032-98.183.282-101.373 1.419m.962 12.609c-2.937 3.49-3.213 5.815-1.164 9.778C26.814 34.542 30.673 37 33.5 37c5.014 0 9.991-6.241 8.818-11.059C41.23 21.472 38.059 19 33.415 19c-3.504 0-4.685.533-6.826 3.077m26.866-.622c-5.17 5.169-1.832 13.995 5.749 15.202 3.2.509 4.117.175 6.75-2.457C72.145 28.009 68.616 19 60 19c-3.01 0-4.739.648-6.545 2.455m27 0c-3.757 3.756-3.429 9.548.74 13.055 2.596 2.185 3.86 2.583 6.75 2.123C99.128 34.854 98.281 19 87.002 19c-3.012 0-4.741.648-6.547 2.455M9 141.821v86.82l2.75 5.423c3.065 6.042 9.142 11.256 15.025 12.89 5.14 1.428 196.31 1.428 201.45 0 5.883-1.634 11.96-6.848 15.025-12.89l2.75-5.423V55H9zm12.669-53.568c-1.535 1.122-1.685 3.33-1.441 21.25L20.5 129.5l19.997.272c17.92.244 20.128.094 21.25-1.441.896-1.224 1.253-6.922 1.253-19.965 0-17.728-.064-18.297-2.223-19.809-2.923-2.048-36.367-2.308-39.108-.304m56.081-.173c-1.571.915-1.75 2.991-1.75 20.27 0 13.639.35 19.6 1.2 20.45 1.693 1.693 38.907 1.693 40.6 0 .848-.848 1.2-6.695 1.2-19.929 0-15.692-.255-18.983-1.571-20.3-1.316-1.315-4.53-1.566-19.75-1.541-10.478.018-18.92.463-19.929 1.05m60.821.491c-1.383 1.384-1.571 7.115-1.571 47.878 0 37.895.248 46.512 1.364 47.438.984.817 14.593 1.06 48.75.873l47.386-.26.26-47.386c.187-34.157-.056-47.766-.873-48.75-.926-1.116-9.543-1.364-47.438-1.364-40.763 0-46.494.188-47.878 1.571M27 109v14h28V95H27zm56.222-.25.278 13.75 13.75.278 13.75.278V95H82.944zm61.235-12.498c-.264.688-.363 19.251-.219 41.25l.262 39.998 41.75.261 41.75.261V95h-41.531c-32.332 0-41.638.277-42.012 1.252M21.75 144.08c-1.568.913-1.75 2.967-1.75 19.77 0 13.25.352 19.102 1.2 19.95.899.899 13.037 1.2 48.465 1.2 45.706 0 47.299-.064 48.3-1.934.6-1.122 1.035-9.282 1.035-19.429 0-14.57-.263-17.757-1.571-19.066-1.385-1.384-7.077-1.567-47.75-1.541-29.501.02-46.811.399-47.929 1.05m5.471 20.17.279 13.25 41.75.261 41.75.261V151H26.942zm-5.058 44.628c-.736.467-1.186 1.922-1 3.235l.337 2.387 105.5.258c96.971.237 105.598.125 106.711-1.388.844-1.146.909-2.212.215-3.508-.962-1.798-4.601-1.861-105.711-1.847-57.593.009-105.317.397-106.052.863"/></svg>