<svg xmlns="http://www.w3.org/2000/svg" width="256" height="256"><path fill="#1976D2" fill-opacity=".016" fill-rule="evenodd" d="M0 128.004v128.004l128.25-.254 128.25-.254.254-127.75L257.008 0H0zm.485.496c0 70.4.119 99.053.265 63.672.146-35.38.146-92.98 0-128C.604 29.153.485 58.1.485 128.5"/><path fill="#1976D2" fill-opacity=".287" fill-rule="evenodd" d="m59.732 22.482-3.768 6.444 8.018 14.287L72 57.5l-16.303.273-16.302.274-7.133 12.476L25.128 83h62.936c34.615 0 62.936-.274 62.936-.608 0-.335-3.037-6.166-6.75-12.959l-6.75-12.351-17.48-.291-17.48-.291-12.02-20.246L78.5 16.007l-7.5.016-7.5.015zm56.379-4.232c.65 1.238 10.258 18 21.35 37.25 11.092 19.25 24.63 42.762 30.084 52.25 5.454 9.487 10.15 17.243 10.435 17.235.44-.013 8.206-13.906 12.909-23.092 1.333-2.603 1.042-3.284-7.25-16.952C178.887 77.109 175 70.3 175 69.81c0-.49 5.369-9.914 11.932-20.943l11.931-20.052-3.762-6.157-3.762-6.158-7.561-.29-7.562-.29-7.858 14.035c-4.322 7.72-8.088 14.038-8.369 14.041-.281.002-4.037-6.296-8.347-13.996l-7.836-14H114.93zm99.127 45.927c-4.658 7.682-59.394 103.067-59.9 104.384-.465 1.212 1.794 1.439 14.359 1.439h14.911l8.046-14.25 8.045-14.25 23.901-.283 23.9-.283 4-6.717c4.127-6.93 5.377-9.877 3.767-8.882-.509.314-2.464-2.094-4.346-5.352l-3.421-5.925-16.222-.279-16.222-.279 8.011-14.129 8.011-14.129-6.601-11.371c-3.631-6.254-6.966-11.741-7.412-12.194-.446-.453-1.718.672-2.827 2.5M63.346 99.25l-8.045 14.25-23.901.283-23.9.284-3.25 5.546C2.462 122.664 1 126.213 1 127.5s1.462 4.834 3.25 7.882l3.25 5.542 16.222.288 16.222.288-8.013 14.132-8.013 14.133 6.909 11.867c3.8 6.528 7.243 11.868 7.651 11.868.408 0 3.217-4.275 6.243-9.5 20.138-34.769 55.561-96.57 55.984-97.673.409-1.066-2.423-1.327-14.402-1.327H71.392zM72 140.213c-3.025 5.6-6.129 11.411-6.898 12.914-1.349 2.637-1.093 3.214 7.25 16.34 8.641 13.595 9.416 15.298 7.774 17.083-.48.523-5.832 9.345-11.894 19.606l-11.02 18.655 3.95 6.595L65.111 238h17.05l6.67-13.993c3.668-7.696 6.924-13.996 7.237-14 .312-.004 4.106 6.293 8.432 13.993l7.865 14h14.401c7.938 0 14.251-.397 14.067-.885-.825-2.192-62.372-107.113-62.824-107.1-.28.009-2.984 4.598-6.009 10.198m33.043 32.537c.024.412 3.07 5.925 6.77 12.25l6.727 11.5 17.48.283 17.48.283 11.375 21.007 11.376 21.007 7.544-.29 7.544-.29 3.777-6.181 3.776-6.181-7.503-13.136c-4.127-7.225-7.751-13.781-8.053-14.569-.463-1.207 2.027-1.438 15.807-1.467l16.357-.035 6.75-11.863c3.713-6.525 6.75-12.135 6.75-12.466 0-.331-27.9-.602-62-.602s-61.981.338-61.957.75"/><path fill="#1976D2" fill-opacity=".19" fill-rule="evenodd" d="M60.598 21.839C58.619 25.096 57 28.266 57 28.883c0 .616 3.563 7.409 7.918 15.095l7.918 13.974-16.551.274-16.551.274-6.911 11.873c-3.801 6.53-6.738 12.046-6.526 12.257.212.212 28.344.269 62.517.128l62.133-.258-7.042-12.75L136.864 57h-34.502L90.346 36.75 78.33 16.5l-7.067-.292-7.067-.292zm69.077 19.411a79101.016 79101.016 0 0 1 31.094 54c9.095 15.813 16.806 28.744 17.134 28.736.328-.008 1.756-2.146 3.173-4.75 1.417-2.605 4.445-8.149 6.729-12.321l4.153-7.585-8.965-14.732-8.965-14.731 11.459-19.281c6.302-10.604 11.718-19.956 12.034-20.781.317-.824-1.074-4.268-3.09-7.652L190.766 16l-7.133.013-7.133.013-8 14.468c-4.4 7.957-8.225 14.47-8.5 14.474-.275.003-4.1-6.505-8.5-14.462l-8-14.468-14.191-.019-14.19-.019zm58.267 70.959c-16.193 28.108-30.246 52.622-31.23 54.475l-1.787 3.37 14.76-.277 14.76-.277 8.331-14.75 8.332-14.75h47.402l4.248-7.061c2.336-3.883 3.901-6.846 3.477-6.584-.424.262-2.314-2.186-4.201-5.44l-3.43-5.915h-16.302C221.2 115 216 114.652 216 113.91c0-.6 3.375-7.07 7.5-14.378s7.5-13.756 7.5-14.33c0-.943-9.632-18.265-12.456-22.4-.98-1.436-5.718 6.214-30.602 49.407M71.278 86.25c-.532.688-4.435 7.438-8.674 15L54.898 115H7.421l-3.21 5.59C2.445 123.664 1 126.774 1 127.5s1.445 3.836 3.211 6.91l3.21 5.59h16.29c11.093 0 16.289.348 16.289 1.09 0 .6-3.375 7.07-7.5 14.378S25 169.224 25 169.797c0 1.048 13.241 24.303 13.615 23.912.301-.314 59.886-103.856 61.264-106.459L101.07 85H86.658c-10.348 0-14.686.353-15.38 1.25m3.646 49.516c-1.417 2.604-4.446 8.15-6.732 12.325l-4.157 7.591 8.961 14.093 8.961 14.093-12.081 20.316-12.08 20.316 2.309 4.378c4.638 8.795 5.133 9.122 13.812 9.122h7.773l6.905-14.48c3.798-7.964 7.13-14.488 7.405-14.498.275-.009 4.125 6.394 8.556 14.231l8.055 14.247 13.695.278c7.532.153 13.694-.12 13.694-.607 0-1.261-60.854-105.622-61.755-105.905-.41-.129-1.904 1.896-3.321 4.5m30.387 36.984 7.142 12.5 6.714 11.75h34.626l11.353 20.985L176.5 238.97l7.133.015 7.133.015 3.617-6.072c1.989-3.339 3.617-6.391 3.617-6.782s-3.561-6.996-7.913-14.679l-7.913-13.967 16.343-.274 16.343-.274 6.7-11.726 7.129-12.476c.236-.412-27.524-.75-61.689-.75s-61.925.338-61.689.75"/><path fill="#1976D2" fill-opacity=".172" fill-rule="evenodd" d="m60.609 22.507-3.807 6.508 8.099 14.31C69.355 51.196 73 57.943 73 58.318s-7.537.698-16.75.718l-16.75.037-6.307 11.073c-3.47 6.09-6.129 11.252-5.909 11.471.219.219 27.913.283 61.541.141l61.144-.258-6.699-12.25L136.572 57h-34.534L89.855 36.5 77.672 16H64.416zM116 16.42c0 .231 13.908 24.56 30.908 54.064l30.907 53.645 5.504-9.815c9.197-16.399 9.276-13.167-.722-29.739-8.505-14.095-8.68-14.513-7.25-17.26.806-1.548 6.23-10.837 12.054-20.641l10.588-17.826-3.744-6.436-3.745-6.435-6.875.261-6.875.262-8.065 14.25c-4.436 7.837-8.382 14.25-8.769 14.25-.387 0-4.368-6.525-8.848-14.5L142.923 16h-13.461c-7.404 0-13.462.189-13.462.42m70.978 98.33c-16.667 29.012-30.468 53.064-30.667 53.447-.2.383 5.977.833 13.726 1l14.089.303 8.187-14.729 8.187-14.729 23.737-.021 23.738-.021 2.557-4.051c5.08-8.047 5.099-8.263 1.309-14.653l-3.437-5.796-16.702-.274c-9.186-.151-16.702-.51-16.702-.799 0-.288 3.6-6.863 8-14.611s8-14.267 8-14.486c0-.572-13.112-23.33-13.442-23.33-.151 0-13.912 23.737-30.58 52.75M63.687 100.229 55.5 114.958l-23.737.021L8.025 115l-2.557 4.051c-5.08 8.047-5.099 8.263-1.309 14.653l3.437 5.796 16.702.274c9.186.151 16.702.51 16.702.799 0 .288-3.6 6.863-8 14.611s-8 14.267-8 14.486c0 1.57 13.405 23.303 13.973 22.654.683-.779 57.433-99.355 59.886-104.021l1.155-2.197-14.07-.303-14.07-.303zm9.035 40.384c-9.2 16.404-9.199 13.427-.01 28.104 4.401 7.031 8.329 13.363 8.728 14.072.442.784-4.005 9.279-11.353 21.686l-12.078 20.396 3.634 6.101 3.635 6.102 8.446-.287 8.446-.287 6.665-14.214c3.666-7.817 6.89-14.221 7.165-14.23.275-.01 4.1 6.493 8.5 14.45l8 14.468 13.832.013 13.831.013-1.971-3.25c-2.258-3.722-57.307-98.271-58.886-101.137-.898-1.632-1.79-.549-6.584 8m34.385 34.637c.648 1.238 3.615 6.412 6.594 11.5l5.416 9.25h34.545l11.526 21.25 11.526 21.25 6.893.262 6.893.261 3.769-6.477 3.769-6.477-8.019-14.096c-4.41-7.754-8.019-14.519-8.019-15.035 0-.546 6.874-.938 16.442-.938h16.441l5.416-9.25c2.979-5.088 5.946-10.262 6.594-11.5l1.177-2.25H105.93z"/></svg>